<svg xmlns="http://www.w3.org/2000/svg" xmlns:xlink="http://www.w3.org/1999/xlink" viewBox="0 0 286.34 37.75"><defs><style>.cls-1,.cls-3{fill:none;}.cls-2{clip-path:url(#clip-path);}.cls-3{stroke:#231f20;stroke-width:1.59px;}.cls-4{fill:#231f20;}</style><clipPath id="clip-path" transform="translate(0 0)"><rect class="cls-1" width="286.34" height="37.75"/></clipPath></defs><title>logo</title><g id="Vrstva_2" data-name="Vrstva 2"><g id="Vrstva_1-2" data-name="Vrstva 1"><g class="cls-2"><polyline class="cls-3" points="286.31 36.95 104.41 36.95 104.41 0.8 0.02 0.8"/><path class="cls-4" d="M279.44,9.82a5,5,0,0,0-2,.41,5.3,5.3,0,0,0-1.64,1.11A5.23,5.23,0,0,0,274.68,13a5.08,5.08,0,0,0-.41,2,5,5,0,0,0,.41,2,5.22,5.22,0,0,0,2.74,2.74,5,5,0,0,0,2,.41h1.74a3.76,3.76,0,0,1,1.48.29,3.72,3.72,0,0,1,1.2.8,3.93,3.93,0,0,1,.82,1.2,3.62,3.62,0,0,1,.3,1.48,3.7,3.7,0,0,1-.3,1.49,3.87,3.87,0,0,1-.82,1.21,3.74,3.74,0,0,1-2.68,1.09h-6v1.37h6a5,5,0,0,0,2-.41,5.22,5.22,0,0,0,1.65-1.11A5.3,5.3,0,0,0,285.93,26a5.16,5.16,0,0,0,0-4,5.15,5.15,0,0,0-2.76-2.76,5,5,0,0,0-2-.41h-1.74a3.78,3.78,0,0,1-2.68-6.45,3.92,3.92,0,0,1,1.2-.82,3.61,3.61,0,0,1,1.48-.3h6V9.82Zm-9.54,6.67V29.12h1.37V16.49a6.69,6.69,0,0,0-.54-2.68,6.92,6.92,0,0,0-3.66-3.66,6.9,6.9,0,0,0-5.35,0A6.92,6.92,0,0,0,258,13.81a6.69,6.69,0,0,0-.54,2.68V29.12h1.37V16.49a5.3,5.3,0,0,1,.43-2.14,5.74,5.74,0,0,1,1.17-1.75,5.46,5.46,0,0,1,1.74-1.19,5.37,5.37,0,0,1,2.16-.43,5.3,5.3,0,0,1,2.14.43,5.6,5.6,0,0,1,2.94,2.94,5.3,5.3,0,0,1,.43,2.14m-16.66,6a5.3,5.3,0,0,1-.43,2.14,5.59,5.59,0,0,1-2.94,2.94,5.3,5.3,0,0,1-2.13.44,5.37,5.37,0,0,1-2.16-.44,5.44,5.44,0,0,1-1.74-1.19,5.71,5.71,0,0,1-1.17-1.75,5.3,5.3,0,0,1-.43-2.14V16.46a5.31,5.31,0,0,1,.43-2.14,5.73,5.73,0,0,1,1.17-1.75,5.44,5.44,0,0,1,1.74-1.19,5.37,5.37,0,0,1,2.16-.43,5.3,5.3,0,0,1,2.13.43,5.58,5.58,0,0,1,2.94,2.94,5.31,5.31,0,0,1,.43,2.14Zm1.37-6.06a6.69,6.69,0,0,0-.54-2.68,6.92,6.92,0,0,0-3.66-3.66,6.69,6.69,0,0,0-2.68-.54,6.78,6.78,0,0,0-2.69.54,6.88,6.88,0,0,0-3.68,3.66,6.67,6.67,0,0,0-.54,2.68v6.06a6.67,6.67,0,0,0,.54,2.68A6.88,6.88,0,0,0,245,28.86a6.78,6.78,0,0,0,2.69.54,6.69,6.69,0,0,0,2.68-.54,6.92,6.92,0,0,0,3.66-3.66,6.69,6.69,0,0,0,.54-2.68ZM236.39,29.12h1.37V9.82h-1.37ZM234,11.29V9.92H221.2v1.37h5.69V29.12h1.4V11.29ZM218,21.76v7.36h1.37V16.49a6.69,6.69,0,0,0-.54-2.68,6.92,6.92,0,0,0-3.66-3.66,6.69,6.69,0,0,0-2.68-.54,6.78,6.78,0,0,0-2.69.54,6.88,6.88,0,0,0-3.68,3.66,6.67,6.67,0,0,0-.54,2.68V29.12H207V21.76Zm0-1.37H207v-3.9a5.3,5.3,0,0,1,.43-2.14,5.72,5.72,0,0,1,1.17-1.75,5.44,5.44,0,0,1,1.74-1.19A5.36,5.36,0,0,1,212.5,11a5.31,5.31,0,0,1,2.14.43,5.59,5.59,0,0,1,2.94,2.94,5.3,5.3,0,0,1,.43,2.14Zm-27.44,8.73h12.26V27.74H191.94V9.84h-1.37Zm-9.75-19.3a5,5,0,0,0-2,.41,5.28,5.28,0,0,0-1.63,1.11A5.22,5.22,0,0,0,176.06,13a5.07,5.07,0,0,0-.41,2,5,5,0,0,0,.41,2,5.23,5.23,0,0,0,2.74,2.74,5,5,0,0,0,2,.41h1.74a3.74,3.74,0,0,1,2.68,1.09,4,4,0,0,1,.82,1.2,3.61,3.61,0,0,1,.3,1.48,3.7,3.7,0,0,1-.3,1.49,3.89,3.89,0,0,1-.82,1.21,3.74,3.74,0,0,1-2.68,1.09h-6v1.37h6a5,5,0,0,0,2-.41A5.19,5.19,0,0,0,187.31,26a5.14,5.14,0,0,0,0-4,5.15,5.15,0,0,0-2.75-2.76,5,5,0,0,0-2-.41h-1.74a3.78,3.78,0,0,1-2.68-6.45,3.92,3.92,0,0,1,1.2-.82,3.61,3.61,0,0,1,1.48-.3h6V9.82Zm-9.54,6.67V29.12h1.37V16.49a6.69,6.69,0,0,0-.54-2.68,6.92,6.92,0,0,0-3.67-3.66,6.9,6.9,0,0,0-5.35,0,6.92,6.92,0,0,0-3.66,3.66,6.69,6.69,0,0,0-.54,2.68V29.12h1.37V16.49a5.3,5.3,0,0,1,.43-2.14,5.74,5.74,0,0,1,1.17-1.75,5.46,5.46,0,0,1,1.74-1.19,5.37,5.37,0,0,1,2.16-.43,5.3,5.3,0,0,1,2.13.43,5.59,5.59,0,0,1,2.94,2.94,5.3,5.3,0,0,1,.43,2.14m-17,5.27v7.36h1.37V16.49a6.69,6.69,0,0,0-.54-2.68,6.92,6.92,0,0,0-3.66-3.66,6.69,6.69,0,0,0-2.68-.54,6.78,6.78,0,0,0-2.69.54,6.88,6.88,0,0,0-3.68,3.66,6.67,6.67,0,0,0-.54,2.68V29.12h1.4V21.76Zm0-1.37h-11v-3.9a5.3,5.3,0,0,1,.43-2.14,5.74,5.74,0,0,1,1.17-1.75,5.46,5.46,0,0,1,1.74-1.19,5.37,5.37,0,0,1,2.16-.43,5.3,5.3,0,0,1,2.14.43,5.6,5.6,0,0,1,2.94,2.94,5.3,5.3,0,0,1,.43,2.14Zm-25.68-9.17h5a3.61,3.61,0,0,1,1.48.3,3.89,3.89,0,0,1,2,2,3.75,3.75,0,0,1,0,3,3.94,3.94,0,0,1-.82,1.2,3.74,3.74,0,0,1-2.68,1.09h-5Zm-1.37,17.9h1.37V20.18h4.53L137,29.12h1.5l-3.87-9h-.08a5.1,5.1,0,0,0,1.67-.61,5.24,5.24,0,0,0,1.36-1.12,4.92,4.92,0,0,0,.9-1.53,5.17,5.17,0,0,0,.32-1.81,5.09,5.09,0,0,0-.41-2,5.23,5.23,0,0,0-1.11-1.65,5.3,5.3,0,0,0-1.63-1.11,5,5,0,0,0-2-.41h-6.38Zm-2.4-17.82V9.92H112v1.37h5.69V29.12h1.4V11.29ZM94.17,22.16v7h2.29V16.67a6.8,6.8,0,0,0-.55-2.73,7.05,7.05,0,0,0-3.73-3.73,7.06,7.06,0,0,0-5.48,0A7.05,7.05,0,0,0,83,13.94a6.8,6.8,0,0,0-.55,2.73V29.12h2.32v-7Zm0-2.29H84.73V16.67a4.59,4.59,0,0,1,.37-1.83,4.77,4.77,0,0,1,2.52-2.52,4.73,4.73,0,0,1,3.66,0,4.77,4.77,0,0,1,2.52,2.52,4.59,4.59,0,0,1,.37,1.83ZM67,18.68,77.48,29.12h3.22L70.25,18.68l7-7L79.06,9.9H75.82l-7.54,7.49ZM65.93,29.12h2.29V9.9H65.93ZM56.07,9.87a5.29,5.29,0,0,0-2.1.42,5.43,5.43,0,0,0-2.89,2.87,5.38,5.38,0,0,0,1.16,5.92A5.54,5.54,0,0,0,54,20.23a5.29,5.29,0,0,0,2.1.42h1.63a3.06,3.06,0,0,1,1.2.24,2.89,2.89,0,0,1,1,.66,3.34,3.34,0,0,1,.66,1,3,3,0,0,1,0,2.4,3.34,3.34,0,0,1-.66,1,2.89,2.89,0,0,1-1,.66,3.08,3.08,0,0,1-1.2.24H51.54v2.29h6.17a5.29,5.29,0,0,0,2.1-.42,5.3,5.3,0,0,0,2.86-2.86,5.43,5.43,0,0,0,0-4.19,5.56,5.56,0,0,0-1.15-1.73,5.34,5.34,0,0,0-3.81-1.58H56.07a3.07,3.07,0,0,1-1.2-.24,3,3,0,0,1-1-.66,3.08,3.08,0,0,1-.66-1A3,3,0,0,1,53,15.27a3.09,3.09,0,0,1,.9-2.19,3,3,0,0,1,1-.66,3.07,3.07,0,0,1,1.2-.24h6.14V9.87ZM45.42,22.39a4.58,4.58,0,0,1-.37,1.83,4.64,4.64,0,0,1-1,1.49,4.9,4.9,0,0,1-1.5,1,4.73,4.73,0,0,1-3.66,0,4.88,4.88,0,0,1-1.5-1A4.63,4.63,0,0,1,36,22.39V16.65a4.58,4.58,0,0,1,.37-1.83,4.77,4.77,0,0,1,2.52-2.52,4.73,4.73,0,0,1,3.66,0,4.77,4.77,0,0,1,2.52,2.52,4.58,4.58,0,0,1,.37,1.83Zm2.29-5.75a6.79,6.79,0,0,0-.55-2.73,7,7,0,0,0-3.73-3.73,7.06,7.06,0,0,0-5.48,0,7,7,0,0,0-3.73,3.73,6.79,6.79,0,0,0-.55,2.73v5.75a6.7,6.7,0,0,0,.55,2.72,7.09,7.09,0,0,0,3.73,3.72,7.07,7.07,0,0,0,5.48,0,7.08,7.08,0,0,0,3.73-3.72,6.7,6.7,0,0,0,.55-2.72Zm-19.4,0V29.12h2.29V16.67a6.8,6.8,0,0,0-.55-2.73,7.05,7.05,0,0,0-3.73-3.73,7,7,0,0,0-5.46,0,7,7,0,0,0-3.73,3.73,6.8,6.8,0,0,0-.55,2.73V29.12h2.29V16.67a4.59,4.59,0,0,1,.37-1.83,4.77,4.77,0,0,1,2.52-2.52,4.73,4.73,0,0,1,3.66,0,4.77,4.77,0,0,1,2.52,2.52,4.59,4.59,0,0,1,.37,1.83m-27.23,2L11.55,29.12h3.22L4.32,18.68l7-7L13.13,9.9H9.89L2.35,17.38ZM0,29.12H2.29V9.9H0Z" transform="translate(0 0)"/></g></g></g></svg>