<svg xmlns="http://www.w3.org/2000/svg" viewBox="0 0 36 9.37"><defs><style>.cls-1{fill:#1d1d1b;}.cls-1,.cls-2,.cls-3,.cls-4,.cls-5{fill-rule:evenodd;}.cls-2{fill:#0069b4;}.cls-3{fill:#e30613;}.cls-4{fill:#ffd500;}.cls-5{fill:#13a538;}</style></defs><title>skrivanek</title><g id="Vrstva_2" data-name="Vrstva 2"><g id="Vrstva_1-2" data-name="Vrstva 1"><polygon class="cls-1" points="5.41 7.74 5.84 7.3 7.21 9.25 8.4 9.25 6.49 6.62 8.3 4.81 7.1 4.81 5.41 6.61 5.41 4.81 4.48 4.81 4.48 9.25 5.41 9.25 5.41 7.74 5.41 7.74"/><polygon class="cls-1" points="14.39 4.81 13.46 4.81 13.46 9.25 14.39 9.25 14.39 4.81 14.39 4.81"/><polygon class="cls-1" points="16.98 8.17 16.96 8.17 16.01 4.81 15.01 4.81 16.51 9.25 17.39 9.25 18.91 4.81 17.94 4.81 16.98 8.17 16.98 8.17"/><polygon class="cls-1" points="26.12 7.9 26.11 7.9 24.34 4.81 23.37 4.81 23.37 9.25 24.23 9.25 24.23 6.08 24.25 6.08 26.06 9.25 26.99 9.25 26.99 4.81 26.12 4.81 26.12 7.9 26.12 7.9"/><polygon class="cls-1" points="31.2 4.81 27.93 4.81 27.93 9.25 31.3 9.25 31.3 8.46 28.84 8.46 28.84 7.31 31 7.31 31 6.53 28.84 6.53 28.84 5.59 31.2 5.59 31.2 4.81 31.2 4.81"/><polygon class="cls-1" points="33 7.74 33.43 7.3 34.81 9.25 36 9.25 34.08 6.62 35.9 4.81 34.7 4.81 33 6.61 33 4.81 32.07 4.81 32.07 9.25 33 9.25 33 7.74 33 7.74"/><path class="cls-1" d="M0,7.88c0,.55.28,1.49,1.9,1.49.39,0,1.75-.12,1.75-1.46,0-.8-.56-1-1.16-1.19L1.4,6.45C1.22,6.41.93,6.33.93,6s.42-.53.77-.53c.81,0,.88.47.91.67h.89c0-.54-.37-1.43-1.73-1.43S.07,5.56.07,6.05c0,1,.69,1.14,1.41,1.31L2,7.47c.47.11.8.2.8.55s-.49.57-.93.57C1,8.6.9,8.13.89,7.88Z"/><path class="cls-1" d="M11.81,7.51l.95,1.74h-.94L11,7.64H10v1.6H9V4.81h2.14a1.3,1.3,0,0,1,1.38,1.42,1.43,1.43,0,0,1-.74,1.28ZM10,6.88V5.57h.84c.58,0,.82.18.82.61,0,.2,0,.69-.69.69Z"/><path class="cls-1" d="M19.88,8.33h1.64l.28.92h1L21.25,4.81H20.18L18.6,9.25h1l.31-.92Zm.82-2.52h0l.55,1.76H20.13l.57-1.76Z"/><polygon class="cls-2" points="2.81 1.97 0.81 1.97 0.81 0 2.81 0 2.81 1.97 2.81 1.97"/><polygon class="cls-1" points="10.89 1.97 8.91 1.97 8.91 0 10.89 0 10.89 1.97 10.89 1.97"/><polygon class="cls-3" points="18.99 1.97 17 1.97 17 0 18.99 0 18.99 1.97 18.99 1.97"/><polygon class="cls-4" points="27.08 1.97 25.1 1.97 25.1 0 27.08 0 27.08 1.97 27.08 1.97"/><polygon class="cls-5" points="35.16 1.97 33.19 1.97 33.19 0 35.16 0 35.16 1.97 35.16 1.97"/></g></g></svg>