<?xml version="1.0" encoding="utf-8"?>
<!-- Generator: Adobe Illustrator 21.1.0, SVG Export Plug-In . SVG Version: 6.00 Build 0)  -->
<svg version="1.1" id="Ebene_1" xmlns="http://www.w3.org/2000/svg" xmlns:xlink="http://www.w3.org/1999/xlink" x="0px" y="0px"
	 viewBox="0 0 278.9 50.8" style="enable-background:new 0 0 278.9 50.8;" xml:space="preserve">
<style type="text/css">
	.st0{fill:#FBB911;}
	.st1{fill:#282D4E;}
</style>
<g>
	<path class="st0" d="M36,0H10.4C4.7,0,0,4.7,0,10.4v40.4h12.4V33.7H34v17.1h12.4V10.4C46.4,4.7,41.8,0,36,0z M34,23.9H12.4V11.1
		c0-1.9,1.6-3.5,3.5-3.5h14.6c1.9,0,3.5,1.6,3.5,3.5V23.9z"/>
	<path class="st0" d="M82.5,10.3v31.2c0,1.7-1.4,3-3,3H65.4c-1.7,0-3-1.4-3-3V10.3H50.8v31.4c0,5,4.1,9.1,9.1,9.1H85
		c5,0,9.1-4.1,9.1-9.1V10.3H82.5z"/>
	<polygon class="st1" points="142.8,0.5 129,25.2 115.9,0.5 99.9,0.5 99.9,50.8 112.8,50.8 112.8,13.1 128.6,42.2 144.3,13.1 
		144.3,50.8 157.3,50.8 157.3,0.5 	"/>
	<path class="st1" d="M201.7,26.4v-6.9c0-4.8-3.9-8.7-8.7-8.7h-22.1c-4.8,0-8.7,3.9-8.7,8.7v22.6c0,4.8,3.9,8.7,8.7,8.7h29.5v-6.1
		h-25.2c-1.4,0-2.6-1.2-2.6-2.6v-7h20.5C197.9,35.1,201.7,31.2,201.7,26.4z M172.6,19.6c0-1.4,1.2-2.6,2.6-2.6h13.6
		c1.4,0,2.6,1.2,2.6,2.6v6.8c0,1.4-1.2,2.6-2.6,2.6h-16.2V19.6z"/>
	<path class="st1" d="M218.9,44.7c-1.4,0-2.6-1.2-2.6-2.6V27.7h13.5v-6.4h-13.5V10.8H206v31.3c0,4.8,3.9,8.7,8.7,8.7h20v-6.1H218.9z
		"/>
	<path class="st1" d="M270.2,11.1h-29.3V17h25c1.4,0,2.6,1.2,2.6,2.6v3.4h-20.2c-4.8,0-8.7,3.9-8.7,8.7v10.5c0,4.8,3.9,8.7,8.7,8.7
		h30.6v-31C278.9,15,275,11.1,270.2,11.1z M268.5,44.8H253c-1.7,0-3-1.4-3-3v-9.8c0-1.7,1.4-3,3-3h15.5V44.8z"/>
</g>
</svg>
